:SAMPLES-PER-SECOND 30
:FRAME-RANGE 1-2775
:FULLY-SPECIFIED
:DEGREES
954
root  67.9495 39.6083 26.1371 -179.531 -10.6331 178.061
RightUpLeg  -6.44696 2.05479 0.0582461
RightLeg  17.4296 -1.57036 -0.833062
RightFoot  -11.5904 -0.0771762 0.608453
RightToes  1.218e-010 1.26228e-014 -6.01869e-014
Spine  -7.6578 -0.210399 1.02753
Spine1  10.191 0.165203 -1.7853
HEad  17.143 8.70145 -4.32234
LeftShoulder1  1.67274 -2.35701 -23.5457
LeftArm  12.6422 -3.66683 -54.5824
LeftForeArm  -8.62212 -42.0407 -10.6237
LeftHand  -0.0876386 1.4208 2.37672
RightShoulder  1.75028 2.31575 25.066
RightArm  -4.00833 4.84446 59.0429
RightForeArm  1.33667 41.7009 9.89481
RightHand  -0.082093 -1.95882 -2.45803
LeftUpLeg  -11.4177 0.172891 -0.565715
LeftLeg  14.7579 6.83452 2.5986
LeftFoot  -4.72079 0.220031 -3.31393
LeftToes  5.08156e-010 -6.90346e-011 -6.33378e-011
955
root  68.0136 39.5885 26.2506 -179.625 -10.5299 177.995
RightUpLeg  -6.6735 2.00725 0.0078135
RightLeg  17.6517 -1.29678 -0.736554
RightFoot  -11.5331 -0.0773525 0.449762
RightToes  1.218e-010 1.26228e-014 -6.01869e-014
Spine  -7.44059 -0.217728 1.41358
Spine1  9.94557 0.171323 -1.8914
HEad  16.6271 9.01597 -4.22627
LeftShoulder1  1.53224 -1.88215 -23.5382
LeftArm  8.21832 -3.24355 -54.4414
LeftForeArm  -6.34003 -46.4806 -12.234
LeftHand  -0.0610594 2.17564 1.82061
RightShoulder  1.70361 2.11162 25.3867
RightArm  -4.7611 6.30573 59.6903
RightForeArm  4.23182 45.7565 11.2229
RightHand  -0.0413489 -3.49173 -1.42299
LeftUpLeg  -11.574 -0.839324 -0.50721
LeftLeg  15.8616 7.70464 2.98823
LeftFoot  -5.9039 0.175538 -2.95001
LeftToes  5.08156e-010 -6.90346e-011 -6.33378e-011
956
root  68.1194 39.5795 26.3242 -179.903 -10.2696 178.083
RightUpLeg  -6.61846 1.98477 0.265599
RightLeg  17.7504 -1.13223 -0.673879
RightFoot  -11.3989 -0.0770291 0.328317
RightToes  1.218e-010 1.26228e-014 -6.01869e-014
Spine  -7.32166 0.0666048 1.49533
Spine1  9.6815 0.382679 -1.5883
HEad  17.1428 8.83548 -3.95383
LeftShoulder1  1.44552 -1.75835 -22.4902
LeftArm  6.06771 -3.75181 -55.7313
LeftForeArm  -3.47635 -49.5501 -13.4437
LeftHand  -0.0535083 3.21903 2.00753
RightShoulder  1.65923 2.06152 24.8233
RightArm  -4.78053 7.45498 61.3025
RightForeArm  6.34972 49.5179 12.7091
RightHand  0.0366919 -8.2377 -3.14896
LeftUpLeg  -11.3958 -1.52402 -0.144905
LeftLeg  17.3622 7.69592 3.09738
LeftFoot  -7.47897 0.132132 -2.58719
LeftToes  5.08156e-010 -6.90346e-011 -6.33378e-011
957
root  68.1768 39.588 26.3621 179.876 -10.3307 178.049
RightUpLeg  -6.33657 1.92325 0.295962
RightLeg  17.5082 -1.01933 -0.65259
RightFoot  -11.2862 -0.076541 0.232241
RightToes  1.218e-010 1.26228e-014 -6.01869e-014
Spine  -7.55334 0.23414 1.66861
Spine1  9.5601 0.572117 -1.68649
HEad  18.3735 8.34629 -3.28618
LeftShoulder1  1.45573 -1.94865 -21.5992
LeftArm  6.77256 -5.40252 -56.5787
LeftForeArm  -4.5014 -49.3547 -13.4213
LeftHand  -0.0473938 4.40089 3.08553
RightShoulder  1.70007 2.25094 24.4938
RightArm  -3.04669 8.68741 62.6355
RightForeArm  6.35315 49.5347 12.7167
RightHand  0.66537 -13.6759 -9.96104
LeftUpLeg  -10.8623 -2.26501 -0.0472207
LeftLeg  18.3222 6.97291 2.91802
LeftFoot  -8.20172 0.120523 -2.60166
LeftToes  5.08156e-010 -6.90346e-011 -6.33378e-011
